%TF.GenerationSoftware,KiCad,Pcbnew,8.0.4*%
%TF.CreationDate,2025-03-28T11:13:13+01:00*%
%TF.ProjectId,final_agv_pdb,66696e61-6c5f-4616-9776-5f7064622e6b,rev?*%
%TF.SameCoordinates,Original*%
%TF.FileFunction,Plated,1,2,PTH,Drill*%
%TF.FilePolarity,Positive*%
%FSLAX46Y46*%
G04 Gerber Fmt 4.6, Leading zero omitted, Abs format (unit mm)*
G04 Created by KiCad (PCBNEW 8.0.4) date 2025-03-28 11:13:13*
%MOMM*%
%LPD*%
G01*
G04 APERTURE LIST*
%TA.AperFunction,ViaDrill*%
%ADD10C,0.300000*%
%TD*%
%TA.AperFunction,ComponentDrill*%
%ADD11C,0.500000*%
%TD*%
%TA.AperFunction,ComponentDrill*%
%ADD12C,0.762000*%
%TD*%
%TA.AperFunction,ComponentDrill*%
%ADD13C,0.800000*%
%TD*%
%TA.AperFunction,ComponentDrill*%
%ADD14C,0.900000*%
%TD*%
%TA.AperFunction,ComponentDrill*%
%ADD15C,1.000000*%
%TD*%
%TA.AperFunction,ComponentDrill*%
%ADD16C,1.200000*%
%TD*%
%TA.AperFunction,ComponentDrill*%
%ADD17C,4.500000*%
%TD*%
G04 APERTURE END LIST*
D10*
X189500000Y-82500000D03*
D11*
%TO.C,5V*%
X177000000Y-78000000D03*
X177000000Y-79000000D03*
X178000000Y-78000000D03*
X178000000Y-79000000D03*
%TO.C,J9*%
X178750000Y-143000000D03*
X178750000Y-144000000D03*
%TO.C,5V*%
X179000000Y-78000000D03*
X179000000Y-79000000D03*
%TO.C,J9*%
X179750000Y-143000000D03*
X179750000Y-144000000D03*
%TO.C,5V*%
X180000000Y-78000000D03*
X180000000Y-79000000D03*
%TO.C,J9*%
X180750000Y-143000000D03*
X180750000Y-144000000D03*
%TO.C,5V*%
X181000000Y-78000000D03*
X181000000Y-79000000D03*
%TO.C,J9*%
X181750000Y-143000000D03*
X181750000Y-144000000D03*
%TO.C,5V*%
X182000000Y-78000000D03*
X182000000Y-79000000D03*
%TO.C,J9*%
X182750000Y-143000000D03*
X182750000Y-144000000D03*
%TO.C,5V*%
X183000000Y-78000000D03*
X183000000Y-79000000D03*
%TO.C,J9*%
X183750000Y-143000000D03*
X183750000Y-144000000D03*
%TO.C,5V*%
X184000000Y-78000000D03*
X184000000Y-79000000D03*
%TO.C,J9*%
X184750000Y-143000000D03*
X184750000Y-144000000D03*
%TO.C,5V*%
X185000000Y-78000000D03*
X185000000Y-79000000D03*
%TO.C,J9*%
X185750000Y-143000000D03*
X185750000Y-144000000D03*
%TO.C,5V*%
X186000000Y-78000000D03*
X186000000Y-79000000D03*
%TO.C,J9*%
X186750000Y-143000000D03*
X186750000Y-144000000D03*
%TO.C,5V*%
X187000000Y-78000000D03*
X187000000Y-79000000D03*
%TO.C,J9*%
X187750000Y-143000000D03*
X187750000Y-144000000D03*
%TO.C,5V*%
X188000000Y-78000000D03*
X188000000Y-79000000D03*
%TO.C,J9*%
X188750000Y-143000000D03*
X188750000Y-144000000D03*
X189750000Y-143000000D03*
X189750000Y-144000000D03*
D12*
%TO.C,REF\u002A\u002A*%
X143000000Y-89000000D03*
X143000000Y-132000000D03*
X201500000Y-97000000D03*
X201500000Y-124000000D03*
D13*
%TO.C,C1*%
X167500000Y-76750000D03*
X167500000Y-79250000D03*
%TO.C,C2*%
X169250000Y-142000000D03*
X169250000Y-144500000D03*
%TO.C,SW1*%
X237955000Y-87250000D03*
X245575000Y-87250000D03*
D14*
%TO.C,D1*%
X212210000Y-79500000D03*
X214750000Y-79500000D03*
D15*
%TO.C,LM2596*%
X77000000Y-87500000D03*
X77000000Y-105280000D03*
X117640000Y-87500000D03*
X117640000Y-105280000D03*
D16*
%TO.C,REF\u002A\u002A*%
X78000000Y-40250000D03*
X78000000Y-77250000D03*
X78000000Y-114500000D03*
X78000000Y-151500000D03*
X115000000Y-40250000D03*
X115000000Y-77250000D03*
X115000000Y-114500000D03*
X115000000Y-151500000D03*
%TO.C,R1*%
X207360000Y-67590000D03*
%TO.C,REF\u002A\u002A*%
X216000000Y-115500000D03*
X216000000Y-152500000D03*
%TO.C,R1*%
X220060000Y-67590000D03*
%TO.C,REF\u002A\u002A*%
X253000000Y-115500000D03*
X253000000Y-152500000D03*
D17*
%TO.C,J1*%
X131000000Y-50550000D03*
X131000000Y-57750000D03*
%TO.C,J2*%
X146000000Y-50800000D03*
X146000000Y-58000000D03*
%TO.C,J3*%
X160500000Y-50800000D03*
X160500000Y-58000000D03*
%TO.C,J4*%
X175000000Y-50800000D03*
X175000000Y-58000000D03*
%TO.C,J5*%
X187000000Y-50800000D03*
X187000000Y-58000000D03*
%TO.C,J6*%
X200250000Y-50750000D03*
X200250000Y-57950000D03*
%TO.C,J7*%
X212500000Y-50750000D03*
X212500000Y-57950000D03*
%TO.C,BATTERY*%
X232000000Y-51250000D03*
X232000000Y-58450000D03*
M02*
